<svg width="1200" height="720" viewBox="0 0 1200 720" fill="none" xmlns="http://www.w3.org/2000/svg">
  <defs>
    <linearGradient id="bg" x1="90" y1="60" x2="1110" y2="660" gradientUnits="userSpaceOnUse">
      <stop stop-color="#08111E"/>
      <stop offset="1" stop-color="#040911"/>
    </linearGradient>
    <linearGradient id="panel" x1="0" y1="0" x2="1" y2="1">
      <stop stop-color="#102235" stop-opacity="0.92"/>
      <stop offset="1" stop-color="#08131F" stop-opacity="0.96"/>
    </linearGradient>
    <filter id="glowCyan" x="-50%" y="-50%" width="200%" height="200%">
      <feGaussianBlur stdDeviation="10" result="blur"/>
      <feMerge>
        <feMergeNode in="blur"/>
        <feMergeNode in="SourceGraphic"/>
      </feMerge>
    </filter>
    <filter id="glowBlue" x="-50%" y="-50%" width="200%" height="200%">
      <feGaussianBlur stdDeviation="8" result="blur"/>
      <feMerge>
        <feMergeNode in="blur"/>
        <feMergeNode in="SourceGraphic"/>
      </feMerge>
    </filter>
  </defs>

  <rect x="0" y="0" width="1200" height="720" rx="28" fill="url(#bg)"/>
  <rect x="32" y="32" width="1136" height="656" rx="24" fill="none" stroke="#6FE6F6" stroke-opacity="0.18"/>

  <path d="M118 606C258 580 306 516 391 459C495 388 556 379 673 330C811 273 878 244 1060 160" stroke="#16E8D7" stroke-opacity="0.38" stroke-width="3" stroke-linecap="round" stroke-dasharray="8 12"/>
  <path d="M118 606C258 580 306 516 391 459C495 388 556 379 673 330C811 273 878 244 1060 160" stroke="#89FFF1" stroke-opacity="0.1" stroke-width="12" stroke-linecap="round"/>

  <g filter="url(#glowCyan)">
    <circle cx="118" cy="606" r="17" fill="#00FFD0"/>
    <circle cx="391" cy="459" r="20" fill="#00FFD0"/>
    <circle cx="673" cy="330" r="23" fill="#7DF4FF"/>
    <circle cx="1060" cy="160" r="19" fill="#00FFD0"/>
  </g>

  <g filter="url(#glowBlue)">
    <circle cx="88" cy="566" r="10" fill="#00A9FF"/>
    <circle cx="152" cy="635" r="10" fill="#FFB23F"/>
    <circle cx="346" cy="420" r="11" fill="#FF5A5A"/>
    <circle cx="431" cy="409" r="11" fill="#00A9FF"/>
    <circle cx="718" cy="284" r="11" fill="#AA44FF"/>
    <circle cx="640" cy="278" r="11" fill="#FFB23F"/>
    <circle cx="1097" cy="126" r="10" fill="#FF5A5A"/>
    <circle cx="1012" cy="121" r="10" fill="#00A9FF"/>
  </g>

  <line x1="118" y1="606" x2="88" y2="566" stroke="#92EAFF" stroke-opacity="0.45"/>
  <line x1="118" y1="606" x2="152" y2="635" stroke="#92EAFF" stroke-opacity="0.45"/>
  <line x1="391" y1="459" x2="346" y2="420" stroke="#92EAFF" stroke-opacity="0.45"/>
  <line x1="391" y1="459" x2="431" y2="409" stroke="#92EAFF" stroke-opacity="0.45"/>
  <line x1="673" y1="330" x2="718" y2="284" stroke="#92EAFF" stroke-opacity="0.45"/>
  <line x1="673" y1="330" x2="640" y2="278" stroke="#92EAFF" stroke-opacity="0.45"/>
  <line x1="1060" y1="160" x2="1097" y2="126" stroke="#92EAFF" stroke-opacity="0.45"/>
  <line x1="1060" y1="160" x2="1012" y2="121" stroke="#92EAFF" stroke-opacity="0.45"/>

  <rect x="58" y="54" width="360" height="74" rx="16" fill="url(#panel)" stroke="#92EAFF" stroke-opacity="0.22"/>
  <text x="84" y="87" fill="#7DF4FF" font-family="JetBrains Mono, monospace" font-size="24" letter-spacing="2">PROMPT.QUANT.STARMAP</text>
  <text x="84" y="112" fill="#DFF6FF" fill-opacity="0.82" font-family="JetBrains Mono, monospace" font-size="15">AI transcript inspection as a spatial interface</text>

  <rect x="838" y="220" width="292" height="364" rx="20" fill="url(#panel)" stroke="#92EAFF" stroke-opacity="0.22"/>
  <text x="868" y="262" fill="#7DF4FF" font-family="JetBrains Mono, monospace" font-size="20">PROMPT 07</text>
  <text x="868" y="292" fill="#DFF6FF" fill-opacity="0.82" font-family="JetBrains Mono, monospace" font-size="14">"Compare tool-use patterns across sessions"</text>

  <rect x="868" y="324" width="232" height="44" rx="10" fill="#0C1827" stroke="#5ED7E7" stroke-opacity="0.2"/>
  <text x="886" y="351" fill="#DFF6FF" font-family="JetBrains Mono, monospace" font-size="14">chars</text>
  <text x="1056" y="351" fill="#00FFD0" font-family="JetBrains Mono, monospace" font-size="14" text-anchor="end">184</text>

  <rect x="868" y="382" width="232" height="44" rx="10" fill="#0C1827" stroke="#5ED7E7" stroke-opacity="0.2"/>
  <text x="886" y="409" fill="#DFF6FF" font-family="JetBrains Mono, monospace" font-size="14">tool calls</text>
  <text x="1056" y="409" fill="#FFB23F" font-family="JetBrains Mono, monospace" font-size="14" text-anchor="end">3</text>

  <rect x="868" y="440" width="232" height="44" rx="10" fill="#0C1827" stroke="#5ED7E7" stroke-opacity="0.2"/>
  <text x="886" y="467" fill="#DFF6FF" font-family="JetBrains Mono, monospace" font-size="14">latency</text>
  <text x="1056" y="467" fill="#FF5A5A" font-family="JetBrains Mono, monospace" font-size="14" text-anchor="end">2.1s</text>

  <rect x="868" y="498" width="232" height="44" rx="10" fill="#0C1827" stroke="#5ED7E7" stroke-opacity="0.2"/>
  <text x="886" y="525" fill="#DFF6FF" font-family="JetBrains Mono, monospace" font-size="14">topic drift</text>
  <text x="1056" y="525" fill="#AA44FF" font-family="JetBrains Mono, monospace" font-size="14" text-anchor="end">0.42</text>

  <text x="88" y="651" fill="#DFF6FF" fill-opacity="0.78" font-family="JetBrains Mono, monospace" font-size="14">Prompt nodes</text>
  <text x="334" y="502" fill="#DFF6FF" fill-opacity="0.78" font-family="JetBrains Mono, monospace" font-size="14">Metrics as satellites</text>
  <text x="625" y="372" fill="#DFF6FF" fill-opacity="0.78" font-family="JetBrains Mono, monospace" font-size="14">Session flow path</text>
  <text x="873" y="560" fill="#DFF6FF" fill-opacity="0.78" font-family="JetBrains Mono, monospace" font-size="14">Details panel</text>
</svg>
